<svg width="134" height="40" viewBox="0 0 134 40" fill="none" xmlns="http://www.w3.org/2000/svg">
<path d="M19.9999 40C31.0456 40 39.9999 31.0457 39.9999 20C39.9999 8.9543 31.0456 0 19.9999 0C8.95424 0 -6.10352e-05 8.9543 -6.10352e-05 20C-6.10352e-05 31.0457 8.95424 40 19.9999 40Z" fill="white" fill-opacity="0.1"/>
<path d="M18.8424 28.0463C14.9124 27.4707 11.8964 24.0828 11.8964 19.9891C11.8964 15.8954 14.9124 12.5075 18.8424 11.9322V7.69238C12.5855 8.29084 7.69232 13.5677 7.69232 19.9891C7.69232 26.4104 12.5855 31.687 18.8424 32.2858V28.0463Z" fill="white"/>
<path d="M26.9983 12L26.8891 12.3711V23.1393L26.9983 23.2483L31.9968 20.2937L26.9983 12Z" fill="white"/>
<path d="M26.9984 12L21.9999 20.2937L26.9984 23.2483V18.0217V12Z" fill="white"/>
<path d="M26.9986 24.8742L26.937 24.9492V28.7851L26.9986 28.9648L32 21.9211L26.9986 24.8742Z" fill="white"/>
<path d="M26.9984 28.9648V24.8742L21.9999 21.9211L26.9984 28.9648Z" fill="white"/>
<path d="M26.9984 23.2482L31.9968 20.2937L26.9984 18.0217V23.2482Z" fill="white"/>
<path d="M21.9999 20.2937L26.9983 23.2482V18.0217L21.9999 20.2937Z" fill="white"/>
<path d="M68.4964 18.3261H66.1058C66.0376 17.9341 65.9119 17.5868 65.7287 17.2842C65.5454 16.9774 65.3175 16.7174 65.0447 16.5044C64.772 16.2913 64.4609 16.1315 64.1115 16.025C63.7663 15.9142 63.3935 15.8588 62.9929 15.8588C62.2812 15.8588 61.6506 16.0378 61.1008 16.3957C60.5511 16.7494 60.1207 17.2693 59.8097 17.9554C59.4986 18.6372 59.343 19.4703 59.343 20.4547C59.343 21.4561 59.4986 22.2998 59.8097 22.9859C60.125 23.6677 60.5554 24.1833 61.1008 24.5328C61.6506 24.878 62.2791 25.0505 62.9865 25.0505C63.3785 25.0505 63.745 24.9994 64.0859 24.8971C64.4311 24.7906 64.7401 24.6351 65.0128 24.4305C65.2898 24.226 65.522 23.9745 65.7095 23.6762C65.9013 23.378 66.0334 23.037 66.1058 22.6535L68.4964 22.6663C68.407 23.2885 68.2131 23.8723 67.9148 24.4177C67.6207 24.9632 67.2351 25.4447 66.7578 25.8623C66.2805 26.2757 65.7223 26.5995 65.0831 26.8339C64.4439 27.064 63.7344 27.1791 62.9545 27.1791C61.804 27.1791 60.777 26.9128 59.8736 26.3801C58.9702 25.8474 58.2585 25.0782 57.7386 24.0726C57.2187 23.0669 56.9588 21.8609 56.9588 20.4547C56.9588 19.0441 57.2209 17.8382 57.745 16.8368C58.2692 15.8311 58.9829 15.0619 59.8864 14.5292C60.7898 13.9966 61.8125 13.7302 62.9545 13.7302C63.6832 13.7302 64.3608 13.8325 64.9872 14.037C65.6136 14.2416 66.1719 14.542 66.6619 14.9383C67.152 15.3304 67.5547 15.8119 67.87 16.3829C68.1896 16.9497 68.3984 17.5974 68.4964 18.3261Z" fill="white"/>
<path d="M71.3881 27.0001V13.9092H76.2972C77.3029 13.9092 78.1467 14.0839 78.8285 14.4333C79.5146 14.7828 80.0323 15.2728 80.3818 15.9035C80.7354 16.5299 80.9123 17.2608 80.9123 18.096C80.9123 18.9355 80.7333 19.6642 80.3754 20.2821C80.0217 20.8957 79.4996 21.3708 78.8093 21.7075C78.119 22.0399 77.271 22.2061 76.2653 22.2061H72.7688V20.2373H75.9457C76.5337 20.2373 77.0153 20.1564 77.3903 19.9944C77.7653 19.8282 78.0423 19.5875 78.2212 19.2721C78.4045 18.9525 78.4961 18.5605 78.4961 18.096C78.4961 17.6315 78.4045 17.2352 78.2212 16.9071C78.038 16.5747 77.7589 16.3233 77.3839 16.1528C77.0089 15.9781 76.5252 15.8907 75.9329 15.8907H73.7596V27.0001H71.3881ZM78.1509 21.0683L81.3917 27.0001H78.7454L75.5621 21.0683H78.1509Z" fill="white"/>
<path d="M85.4963 27.0001H82.965L87.5737 13.9092H90.5013L95.1163 27.0001H92.5851L89.0886 16.5939H88.9863L85.4963 27.0001ZM85.5794 21.8673H92.4828V23.7721H85.5794V21.8673Z" fill="white"/>
<path d="M97.5606 27.0001V13.9092H102.47C103.475 13.9092 104.319 14.0967 105.001 14.4717C105.687 14.8467 106.205 15.3623 106.554 16.0186C106.908 16.6706 107.085 17.412 107.085 18.243C107.085 19.0825 106.908 19.8282 106.554 20.4802C106.2 21.1322 105.678 21.6457 104.988 22.0207C104.298 22.3914 103.448 22.5768 102.438 22.5768H99.1841V20.6272H102.118C102.706 20.6272 103.188 20.525 103.563 20.3204C103.938 20.1159 104.215 19.8346 104.394 19.4767C104.577 19.1187 104.669 18.7075 104.669 18.243C104.669 17.7785 104.577 17.3694 104.394 17.0157C104.215 16.662 103.936 16.3872 103.556 16.1912C103.181 15.9909 102.698 15.8907 102.105 15.8907H99.932V27.0001H97.5606Z" fill="white"/>
<path d="M109.865 27.0001V13.9092H114.774C115.779 13.9092 116.623 14.0967 117.305 14.4717C117.991 14.8467 118.509 15.3623 118.858 16.0186C119.212 16.6706 119.389 17.412 119.389 18.243C119.389 19.0825 119.212 19.8282 118.858 20.4802C118.504 21.1322 117.982 21.6457 117.292 22.0207C116.602 22.3914 115.752 22.5768 114.742 22.5768H111.488V20.6272H114.422C115.01 20.6272 115.492 20.525 115.867 20.3204C116.242 20.1159 116.519 19.8346 116.698 19.4767C116.881 19.1187 116.973 18.7075 116.973 18.243C116.973 17.7785 116.881 17.3694 116.698 17.0157C116.519 16.662 116.24 16.3872 115.86 16.1912C115.485 15.9909 115.002 15.8907 114.409 15.8907H112.236V27.0001H109.865Z" fill="white"/>
<path d="M133.866 20.4547C133.866 21.8652 133.602 23.0733 133.073 24.0789C132.549 25.0804 131.833 25.8474 130.926 26.3801C130.022 26.9128 128.997 27.1791 127.851 27.1791C126.705 27.1791 125.678 26.9128 124.77 26.3801C123.867 25.8432 123.151 25.074 122.622 24.0726C122.098 23.0669 121.836 21.8609 121.836 20.4547C121.836 19.0441 122.098 17.8382 122.622 16.8368C123.151 15.8311 123.867 15.0619 124.77 14.5292C125.678 13.9966 126.705 13.7302 127.851 13.7302C128.997 13.7302 130.022 13.9966 130.926 14.5292C131.833 15.0619 132.549 15.8311 133.073 16.8368C133.602 17.8382 133.866 19.0441 133.866 20.4547ZM131.482 20.4547C131.482 19.4618 131.326 18.6244 131.015 17.9426C130.708 17.2565 130.282 16.7387 129.737 16.3893C129.191 16.0356 128.563 15.8588 127.851 15.8588C127.139 15.8588 126.511 16.0356 125.965 16.3893C125.42 16.7387 124.992 17.2565 124.681 17.9426C124.374 18.6244 124.22 19.4618 124.22 20.4547C124.22 21.4476 124.374 22.287 124.681 22.9731C124.992 23.6549 125.42 24.1727 125.965 24.5264C126.511 24.8758 127.139 25.0505 127.851 25.0505C128.563 25.0505 129.191 24.8758 129.737 24.5264C130.282 24.1727 130.708 23.6549 131.015 22.9731C131.326 22.287 131.482 21.4476 131.482 20.4547Z" fill="white"/>
</svg>
